<?xml version="1.0" encoding="UTF-8"?>
<svg id="Layer_1" data-name="Layer 1" xmlns="http://www.w3.org/2000/svg" version="1.1" viewBox="0 0 283.46 153">
  <defs>
    <style>
      .cls-1 {
        fill: #000;
        stroke-width: 0px;
      }
    </style>
  </defs>
  <path class="cls-1" d="M34.84,67.42c-1.91-1.82-2.86-4.36-2.86-7.64V25.82c0-1.27.41-2.27,1.23-3,.82-.73,1.91-1.09,3.27-1.09s2.47.37,3.31,1.12c.84.75,1.26,1.74,1.26,2.97v33.96c0,1.05.26,1.86.78,2.46.52.59,1.24.89,2.15.89h21.82c1.36,0,2.41.31,3.14.92.73.61,1.09,1.49,1.09,2.63s-.38,1.94-1.13,2.56c-.75.61-1.78.92-3.1.92h-22.91c-3.46,0-6.14-.91-8.05-2.73Z"/>
  <path class="cls-1" d="M75.42,69.67c-.82-.73-1.23-1.73-1.23-3v-23.87c0-6.59,1.89-11.75,5.66-15.48,3.77-3.73,9.02-5.59,15.75-5.59,4.41,0,8.23.84,11.46,2.52,3.23,1.68,5.69,4.12,7.4,7.3,1.7,3.18,2.56,6.93,2.56,11.25v23.87c0,1.27-.41,2.27-1.23,3s-1.91,1.09-3.27,1.09-2.47-.37-3.31-1.12c-.84-.75-1.26-1.74-1.26-2.97v-11.12h-24.69v11.12c0,1.23-.42,2.22-1.26,2.97-.84.75-1.94,1.12-3.31,1.12s-2.45-.36-3.27-1.09ZM107.94,48.53v-5.93c0-4.55-1.03-7.97-3.1-10.26-2.07-2.29-5.15-3.44-9.24-3.44-8.23,0-12.34,4.57-12.34,13.71v5.93h24.69Z"/>
  <path class="cls-1" d="M126.08,67.42c-1.91-1.82-2.86-4.36-2.86-7.64v-27.28c0-3.18.92-5.66,2.76-7.43,1.84-1.77,4.4-2.66,7.67-2.66h15.75c5.27,0,9.34,1.11,12.21,3.34,2.86,2.23,4.3,5.46,4.3,9.68,0,2.09-.61,4.04-1.84,5.83-1.23,1.8-2.82,3.15-4.77,4.06v.07c2.18.86,3.97,2.24,5.35,4.13,1.39,1.89,2.08,3.92,2.08,6.1,0,4.55-1.47,8.1-4.4,10.67-2.93,2.57-6.97,3.85-12.1,3.85h-16.09c-3.46,0-6.14-.91-8.05-2.73ZM149.4,42.12c2.32,0,4.13-.57,5.42-1.7,1.3-1.14,1.94-2.77,1.94-4.91s-.61-3.64-1.84-4.64c-1.23-1-3.07-1.5-5.52-1.5h-14.32c-.91,0-1.63.3-2.15.89-.52.59-.78,1.41-.78,2.46v9.41h17.25ZM149.4,63.19c5.46,0,8.18-2.48,8.18-7.43,0-2.14-.72-3.8-2.15-4.98-1.43-1.18-3.44-1.77-6.03-1.77h-17.25v10.84c0,1.05.26,1.86.78,2.45.52.59,1.24.89,2.15.89h14.32Z"/>
  <path class="cls-1" d="M175.45,67.42c-1.91-1.82-2.86-4.36-2.86-7.64v-27.28c0-3.18.92-5.66,2.76-7.43,1.84-1.77,4.4-2.66,7.67-2.66h21.21c1.36,0,2.41.31,3.14.92.73.61,1.09,1.49,1.09,2.63s-.37,1.94-1.13,2.56c-.75.61-1.78.92-3.1.92h-19.64c-.91,0-1.63.3-2.15.89-.52.59-.78,1.41-.78,2.46v9.48h17.39c1.36,0,2.41.31,3.14.92.73.61,1.09,1.49,1.09,2.63s-.37,1.94-1.13,2.56c-.75.61-1.78.92-3.1.92h-17.39v10.5c0,1.05.26,1.86.78,2.46.52.59,1.24.89,2.15.89h21.14c1.36,0,2.41.31,3.14.92.73.61,1.09,1.49,1.09,2.63s-.38,1.94-1.13,2.56c-.75.61-1.78.92-3.1.92h-22.23c-3.46,0-6.14-.91-8.05-2.73Z"/>
  <path class="cls-1" d="M218.69,67.42c-1.91-1.82-2.86-4.36-2.86-7.64V25.82c0-1.27.41-2.27,1.23-3,.82-.73,1.91-1.09,3.27-1.09s2.47.37,3.31,1.12c.84.75,1.26,1.74,1.26,2.97v33.96c0,1.05.26,1.86.78,2.46.52.59,1.24.89,2.15.89h21.82c1.36,0,2.41.31,3.14.92.73.61,1.09,1.49,1.09,2.63s-.38,1.94-1.13,2.56c-.75.61-1.78.92-3.1.92h-22.91c-3.46,0-6.14-.91-8.05-2.73Z"/>
  <path class="cls-1" d="M33.44,129.92c-3.84-2.07-6.76-4.95-8.76-8.66-2-3.7-3-7.97-3-12.79s1-9.08,3-12.79c2-3.7,4.92-6.59,8.76-8.66,3.84-2.07,8.42-3.1,13.74-3.1s9.9,1.03,13.74,3.1c3.84,2.07,6.76,4.96,8.76,8.66,2,3.71,3,7.97,3,12.79s-1,9.08-3,12.79c-2,3.71-4.92,6.59-8.76,8.66-3.84,2.07-8.42,3.1-13.74,3.1s-9.9-1.03-13.74-3.1ZM59.25,121.19c2.86-3.11,4.3-7.35,4.3-12.72s-1.49-9.66-4.47-12.75c-2.98-3.09-7.17-4.64-12.58-4.64-4.96,0-8.81,1.58-11.56,4.74-2.75,3.16-4.13,7.38-4.13,12.65s1.43,9.61,4.3,12.72c2.86,3.11,6.89,4.67,12.07,4.67s9.21-1.56,12.07-4.67Z"/>
  <path class="cls-1" d="M78.55,94.7c0-3.18.92-5.66,2.76-7.43,1.84-1.77,4.4-2.66,7.67-2.66h12.14c6.77,0,11.89,1.32,15.34,3.95,3.45,2.64,5.18,6.57,5.18,11.8,0,4.86-1.44,8.66-4.33,11.39-2.89,2.73-6.76,4.09-11.63,4.09l10.37,10.3c.82.82,1.23,1.75,1.23,2.8s-.48,2.05-1.43,2.86c-1,.77-1.98,1.16-2.93,1.16-1.32,0-2.52-.59-3.61-1.77l-14.73-15.07h-6.96v12.82c0,1.27-.43,2.27-1.3,3-.86.73-1.96,1.09-3.27,1.09s-2.45-.36-3.27-1.09-1.23-1.73-1.23-3v-34.23ZM100.85,109.09c3,0,5.34-.3,7.02-.89,1.68-.59,2.88-1.51,3.58-2.76.7-1.25,1.06-2.94,1.06-5.08,0-3.09-.94-5.32-2.83-6.68-1.89-1.36-4.83-2.05-8.83-2.05h-10.3c-.91,0-1.63.3-2.15.89-.52.59-.78,1.41-.78,2.46v14.12h13.23Z"/>
  <path class="cls-1" d="M130.79,131.93c-.82-.73-1.23-1.73-1.23-3v-40.92c0-1.27.41-2.27,1.23-3,.82-.73,1.91-1.09,3.27-1.09s2.41.36,3.27,1.09c.86.73,1.3,1.73,1.3,3v40.92c0,1.27-.43,2.27-1.3,3-.86.73-1.96,1.09-3.27,1.09s-2.46-.36-3.27-1.09Z"/>
  <path class="cls-1" d="M158.2,130.09c-3.77-1.95-6.66-4.77-8.66-8.46-2-3.68-3-8.05-3-13.09s1-9.42,3-13.13c2-3.7,4.88-6.55,8.63-8.52,3.75-1.98,8.17-2.97,13.26-2.97,4.23,0,8.14.73,11.73,2.18,3.59,1.45,6.25,3.39,7.98,5.8.55.73.82,1.48.82,2.25,0,1.14-.61,2.16-1.84,3.07-.55.41-1.23.61-2.05.61-.68,0-1.36-.15-2.05-.44-.68-.3-1.25-.72-1.7-1.26-1.55-1.77-3.34-3.06-5.39-3.85-2.05-.8-4.55-1.19-7.5-1.19-4.96,0-8.82,1.53-11.59,4.6-2.77,3.07-4.16,7.35-4.16,12.85s1.4,9.71,4.19,12.75c2.8,3.05,6.69,4.57,11.7,4.57,4.14,0,7.38-.79,9.72-2.39,2.34-1.59,3.51-3.8,3.51-6.61v-1.5c0-.95-.22-1.61-.65-1.98-.43-.36-1.17-.55-2.22-.55h-8.93c-1.27,0-2.27-.31-3-.92-.73-.61-1.09-1.47-1.09-2.56s.35-2.01,1.06-2.63c.7-.61,1.72-.92,3.03-.92h13.23c2.64,0,4.57.56,5.8,1.67,1.23,1.11,1.84,2.88,1.84,5.28v2.66c0,3.46-.93,6.51-2.8,9.17-1.86,2.66-4.49,4.73-7.88,6.2-3.39,1.48-7.26,2.22-11.63,2.22-5.14,0-9.59-.98-13.37-2.93Z"/>
  <path class="cls-1" d="M203,131.93c-.82-.73-1.23-1.73-1.23-3v-40.92c0-1.27.41-2.27,1.23-3,.82-.73,1.91-1.09,3.27-1.09s2.41.36,3.27,1.09c.86.73,1.3,1.73,1.3,3v40.92c0,1.27-.43,2.27-1.3,3-.86.73-1.96,1.09-3.27,1.09s-2.46-.36-3.27-1.09Z"/>
  <path class="cls-1" d="M220.32,131.93c-.82-.73-1.23-1.73-1.23-3v-25.71c0-6.05,1.89-10.77,5.66-14.18,3.77-3.41,9-5.11,15.68-5.11s11.91,1.7,15.68,5.11c3.77,3.41,5.66,8.14,5.66,14.18v25.71c0,1.27-.41,2.27-1.23,3s-1.91,1.09-3.27,1.09-2.47-.37-3.31-1.13c-.84-.75-1.26-1.74-1.26-2.97v-25.91c0-3.86-1.05-6.82-3.14-8.87-2.09-2.05-5.14-3.07-9.14-3.07s-7.05,1.02-9.14,3.07c-2.09,2.05-3.14,5-3.14,8.87v25.91c0,1.23-.42,2.22-1.26,2.97-.84.75-1.94,1.13-3.31,1.13s-2.45-.36-3.27-1.09Z"/>
</svg>